<?xml version="1.0" encoding="UTF-8" standalone="no"?>
<!-- Created with Inkscape (http://www.inkscape.org/) -->

<svg
   xmlns:dc="http://purl.org/dc/elements/1.1/"
   xmlns:cc="http://creativecommons.org/ns#"
   xmlns:rdf="http://www.w3.org/1999/02/22-rdf-syntax-ns#"
   xmlns:svg="http://www.w3.org/2000/svg"
   xmlns="http://www.w3.org/2000/svg"
   xmlns:sodipodi="http://sodipodi.sourceforge.net/DTD/sodipodi-0.dtd"
   xmlns:inkscape="http://www.inkscape.org/namespaces/inkscape"
   version="1.1"
   id="svg815"
   width="330"
   height="150"
   viewBox="0 0 330 150"
   sodipodi:docname="logo.svg"
   inkscape:export-filename="C:\Users\Andreza\Google Drive\Reprograma\FrontEnd\Projeto final\adopet\src\assets\logo3.png"
   inkscape:export-xdpi="96"
   inkscape:export-ydpi="96"
   inkscape:version="0.92.3 (2405546, 2018-03-11)">
  <metadata
     id="metadata821">
    <rdf:RDF>
      <cc:Work
         rdf:about="">
        <dc:format>image/svg+xml</dc:format>
        <dc:type
           rdf:resource="http://purl.org/dc/dcmitype/StillImage" />
        <dc:title></dc:title>
      </cc:Work>
    </rdf:RDF>
  </metadata>
  <defs
     id="defs819" />
  <sodipodi:namedview
     pagecolor="#ffffff"
     bordercolor="#666666"
     borderopacity="1"
     objecttolerance="10"
     gridtolerance="10"
     guidetolerance="10"
     inkscape:pageopacity="0"
     inkscape:pageshadow="2"
     inkscape:window-width="1366"
     inkscape:window-height="705"
     id="namedview817"
     showgrid="false"
     inkscape:zoom="2.6848485"
     inkscape:cx="160.83907"
     inkscape:cy="60.10158"
     inkscape:window-x="-8"
     inkscape:window-y="-8"
     inkscape:window-maximized="1"
     inkscape:current-layer="svg815" />
  <rect
     style="fill:#ff0000;fill-opacity:1;stroke:none;stroke-width:1.18851173"
     id="rect821"
     width="327.76523"
     height="147.1219"
     x="1.1173815"
     y="1.0158025" />
  <path
     style="fill:#ffffff;fill-opacity:1"
     d="m 135.74698,75.065053 c 3.4e-4,-19.25 2.74191,-32.942848 2.90578,-23.144868 0.16386,9.79798 0.53604,36.349334 0.37184,45.801364 -0.16421,9.452011 -3.27796,-3.406486 -3.27762,-22.656496 z M 54.438839,106.62769 c -13.69075,-5.06661 -20.16235,-11.740077 -20.16235,-20.791317 0,-2.16232 -0.32023,-2.3599 -2.9048,-1.79223 -1.66631,0.36598 -3.183731,0.18668 -3.559021,-0.42055 -0.41171,-0.66617 0.61765,-1.05854 2.777001,-1.05854 3.26539,0 3.46345,-0.20539 4.09838,-4.25 0.36695,-2.3375 1.17987,-5.68486 1.80649,-7.43858 0.90833,-2.54214 0.76393,-5.23444 -0.71227,-13.27994 -1.83895,-10.02253 -1.83779,-10.10991 0.17066,-12.81142 3.2987,-4.43699 7.55765,-4.14562 15.66668,1.07182 6.52576,4.19874 7.0267,4.35097 11.82284,3.5928 2.75459,-0.43544 7.10662,-0.38789 9.67119,0.10567 4.48677,0.8635 4.92049,0.72745 11.485162,-3.60254 8.12808,-5.36119 12.6332,-5.6981 15.980829,-1.1951 l 2.00182,2.69272 -2.00314,10.04453 c -1.952539,9.7909 -1.957219,10.17741 -0.18512,15.30728 0.9999,2.89452 1.83269,6.27526 1.85065,7.51276 0.0265,1.82608 0.59787,2.25 3.03264,2.25 1.65,0 3,0.48575 3,1.07945 0,0.66487 -1.08745,0.84061 -2.83138,0.45758 -2.7552,-0.60514 -2.86622,-0.46604 -4.12684,5.17056 -1.582079,7.07396 -5.149169,10.794277 -14.826259,15.463217 -5.958612,2.87485 -7.842612,3.27538 -16.715512,3.5536 -8.04424,0.25224 -11.04392,-0.0728 -15.33765,-1.66177 z m 25.36766,-0.61247 c 6.215152,-1.61884 13.519232,-5.74478 17.306442,-9.776067 1.44055,-1.53339 2.43912,-4.20517 2.84151,-7.60274 l 0.620409,-5.23851 -10.127439,0.27197 c -5.5701,0.14959 -10.437242,-0.0378 -10.815862,-0.41642 -0.37862,-0.37862 4.12572,-0.6884 10.009652,-0.6884 8.12153,0 10.824309,-0.32906 11.222329,-1.36628 0.28836,-0.75145 -0.39625,-4.09886 -1.521339,-7.43868 l -2.04565,-6.0724 2.0144,-9.79012 c 1.971779,-9.58305 1.974769,-9.84345 0.14108,-12.31132 -3.00585,-4.04539 -6.52288,-3.7688 -13.39777,1.05366 l -6.025552,4.22668 -11.55812,0.0992 -11.55812,0.0992 -6.06799,-4.23922 c -6.73354,-4.70418 -10.49743,-5.33134 -13.56799,-2.26078 -2.41342,2.41342 -2.41774,3.12425 -0.0867,14.27659 1.56325,7.47906 1.64489,9.32707 0.55224,12.5 -0.70522,2.04787 -1.59854,5.41091 -1.98516,7.47341 l -0.70295,3.75 h 11.27796 c 6.20287,0 10.94347,0.33448 10.53465,0.7433 -0.40881,0.40881 -5.15628,0.59179 -10.54993,0.40661 -5.39365,-0.18518 -10.05042,0.0578 -10.34838,0.53988 -1.24294,2.01112 1.58321,10.85822 4.16739,13.04574 10.81367,9.153817 25.55347,12.391757 39.6709,8.714637 z m -22.56187,-8.988547 c -0.92128,-1.11008 -0.61194,-1.15343 1.78218,-0.24976 1.59333,0.60142 4.10133,0.79121 5.57333,0.42177 2.41516,-0.60617 2.67635,-1.11935 2.67635,-5.25832 0,-3.43667 -0.62846,-5.33348 -2.50669,-7.56563 -1.37867,-1.63847 -2.25212,-3.39093 -1.94098,-3.89436 0.31114,-0.50343 2.78915,-0.91532 5.50669,-0.91532 4.11706,0 4.94098,0.30443 4.94098,1.82568 0,1.00413 -1.125,2.88257 -2.5,4.17432 -2.74285,2.57678 -3.47132,8.62868 -1.3,10.80001 1.45216,1.45215 7.437,1.59636 8.3,0.2 0.33992,-0.55 1.15398,-0.98569 1.80902,-0.9682 0.65504,0.0175 0.39725,0.63416 -0.57286,1.37037 -2.46745,1.872516 -20.22306,1.920996 -21.76802,0.0594 z m 13.63982,-13.21162 c 2.11688,-2.78865 1.67241,-3.25 -3.13101,-3.25 h -4.52305 l 1.63806,2.5 c 1.9181,2.92739 4.15174,3.20585 6.016,0.75 z m -29.60796,8.04045 c 0,-0.50794 3.0375,-1.52067 6.75,-2.25052 3.7125,-0.72985 7.38632,-1.56387 8.16405,-1.8534 0.81208,-0.30231 1.14172,-0.0858 0.77435,0.50864 -0.35183,0.56927 -3.39622,1.57736 -6.76532,2.24019 -3.36909,0.66283 -6.75505,1.44667 -7.52435,1.74188 -0.7693,0.29521 -1.39873,0.12116 -1.39873,-0.38679 z m 45.813302,-1.15204 c -3.677692,-0.90112 -7.052692,-2.0476 -7.500002,-2.54773 -0.47016,-0.52568 -0.11768,-0.66079 0.83543,-0.32025 0.9068,0.324 4.405262,1.1314 7.774352,1.79423 3.3691,0.66282 6.36623,1.59444 6.66029,2.07024 0.65192,1.05482 0.5468,1.04134 -7.77007,-0.99649 z M 51.339879,70.886483 c -0.0871,-2.99242 2.51119,-5.32143 5.93661,-5.32143 3.2008,0 6.02056,2.2811 5.95996,4.82143 -0.0268,1.12375 -0.53315,0.76961 -1.53193,-1.07143 -2.33195,-4.29845 -7.36493,-3.60779 -9.31483,1.27823 -0.93219,2.33585 -0.98991,2.35197 -1.04981,0.2932 z m 32.62551,-0.5562 c -1.19287,-4.53489 -8.26383,-5.1067 -9.40047,-0.76019 -0.28693,1.09723 -0.90508,1.99496 -1.37368,1.99496 -1.23053,0 0.093,-3.2811 1.91612,-4.75 3.74488,-3.01736 10.860922,0.14428 9.960922,4.42559 -0.29337,1.39552 -0.55263,1.18152 -1.102892,-0.91036 z m -42.06414,-11.03635 c -1.2296,-4.58721 -0.67132,-7.366 1.73906,-8.656 1.96867,-1.0536 2.8881,-0.99397 5.5,0.3567 1.7249,0.89198 3.13618,1.97559 3.13618,2.40804 0,0.69084 -2.05171,2.43469 -8.10783,6.89126 -1.41032,1.03782 -1.76284,0.88235 -2.26741,-1 z m 8.30304,-5.81837 c 0.0397,-0.32422 -0.96911,-1.06394 -2.24183,-1.64383 -4.20089,-1.91405 -6.91258,1.37324 -5.07753,6.1553 0.51334,1.33774 1.12725,1.15515 3.9278,-1.16821 1.82565,-1.51458 3.35186,-3.01904 3.39156,-3.34326 z m 38.322202,4.1626 c -2.3375,-2.11467 -4.250002,-4.10966 -4.250002,-4.4333 0,-0.32365 1.384292,-1.3043 3.076202,-2.17922 2.8106,-1.45341 3.28547,-1.45364 5.5,-0.003 1.33309,0.87345 2.4238,2.19649 2.4238,2.94006 0,2.55779 -1.25086,7.60189 -1.875,7.56093 -0.34375,-0.0226 -2.5375,-1.77119 -4.875,-3.88587 z m 5.67972,-2.75168 c 0.0761,-1.27565 -2.60926,-4.32143 -3.81002,-4.32143 -0.40559,0 -1.61095,0.64921 -2.67857,1.44269 -1.87351,1.39244 -1.81921,1.54577 1.55887,4.40173 3.02364,2.5563 3.59251,2.73423 4.17972,1.30731 0.37384,-0.90846 0.71134,-2.18209 0.75,-2.8303 z m 149.070269,28.67857 c 0,-14.86275 0.24691,-18 1.41667,-18 0.77916,0 1.57887,0.48663 1.77713,1.08139 0.23077,0.69232 1.46652,0.44661 3.43461,-0.68292 2.62238,-1.50503 3.51782,-1.58054 6.09315,-0.51381 4.10543,1.70053 5.27844,4.81783 5.27844,14.02753 0,6.50431 -0.36409,8.28096 -2.16662,10.57251 -1.97753,2.51402 -2.58847,2.70446 -7,2.18198 l -4.83338,-0.57244 v 4.95288 c 0,4.286207 -0.2692,4.952877 -2,4.952877 -1.92593,0 -2,-0.66667 -2,-17.999997 z m 12.8,3.80001 c 0.70798,-0.70799 1.2,-4.11112 1.2,-8.30001 0,-4.18889 -0.49202,-7.59202 -1.2,-8.3 -1.90147,-1.90147 -6.59158,-1.45797 -7.76482,0.73426 -1.59257,2.97575 -1.26523,12.29228 0.52152,14.84323 1.69357,2.41791 5.334,2.93182 7.2433,1.02252 z m -83.04209,-12.85313 c 4.4498,-17.78151 4.55622,-18.04857 7.07317,-17.75 2.43147,0.28842 2.7629,1.12749 6.8347,17.30312 2.35361,9.35 4.29166,17.3688 4.30676,17.81956 0.0151,0.45075 -0.96994,0.67575 -2.18898,0.5 -1.64195,-0.23673 -2.44826,-1.3041 -3.11079,-4.11797 l -0.89435,-3.79843 -5.10613,0.29842 c -4.99895,0.29215 -5.12466,0.37714 -5.98855,4.04843 -0.70104,2.97917 -1.3512,3.75 -3.16301,3.75 h -2.2806 z m 10.8343,4.30312 c -0.29841,-0.9625 -1.1791,-4.81287 -1.95709,-8.55638 -0.778,-3.74351 -1.62536,-7.0172 -1.88304,-7.27488 -0.39859,-0.39859 -3.75511,14.65513 -3.75286,16.83126 4.3e-4,0.4125 1.8311,0.75 4.06817,0.75 3.41372,0 3.98019,-0.28124 3.52482,-1.75 z m 13.48037,11.11515 c -2.8912,-3.67558 -3.00352,-18.59627 -0.16775,-22.28523 1.93769,-2.52068 6.78401,-3.30243 10.34517,-1.66875 1.55405,0.71291 1.75,0.17497 1.75,-4.80418 0,-4.94033 0.2378,-5.60699 2,-5.60699 1.92793,0 2,0.66666 2,18.5 0,15.29412 -0.2455,18.50001 -1.41667,18.50001 -0.77916,0 -1.58817,-0.51453 -1.7978,-1.1434 -0.28595,-0.85787 -0.91465,-0.85787 -2.51759,0 -3.7438,2.00362 -7.92755,1.39159 -10.19536,-1.49146 z m 10.37072,-3.58766 c 1.78675,-2.55095 2.11409,-11.86748 0.52152,-14.84323 -1.31277,-2.45293 -7.45245,-2.71185 -8.35783,-0.35248 -1.09573,2.85543 -0.65267,14.97253 0.59301,16.21823 1.9093,1.9093 5.54973,1.39539 7.2433,-1.02252 z m 14.01125,3.76797 c -2.2265,-2.2265 -2.45455,-3.25563 -2.45455,-11.07693 0,-8.27627 0.12229,-8.74467 3.04639,-11.66877 2.63217,-2.63217 3.54998,-2.96623 6.75,-2.45684 6.11719,0.97376 8.20361,4.3468 8.20361,13.2625 0,7.82008 -1.59031,12.63966 -4.5448,13.77341 -3.69676,1.41857 -8.55906,0.60823 -11.00065,-1.83337 z m 9.97402,-3.11688 c 1.83119,-1.8312 2.19668,-12.39177 0.53625,-15.49432 -1.17324,-2.19223 -5.86335,-2.63573 -7.76482,-0.73426 -0.70798,0.70798 -1.2,4.11111 -1.2,8.3 0,4.18889 0.49202,7.59202 1.2,8.30001 1.68275,1.68275 5.36352,1.49361 7.22857,-0.37143 z m 38.02598,3.11688 c -2.23655,-2.23655 -2.45455,-3.24116 -2.45455,-11.31145 0,-7.51494 0.30722,-9.18666 2.02768,-11.03335 6.4162,-6.88698 15.9664,-1.47566 15.97077,9.04934 l 0.002,3.75 h -7 c -7,0 -7,0 -7,2.8 0,1.54 0.54,3.34 1.2,4.00001 1.83346,1.83345 5.6217,1.43109 7.53203,-0.80001 1.53991,-1.79849 5.26797,-2.82487 5.26797,-1.45034 0,1.57235 -3.13953,6.28991 -4.5448,6.82917 -3.69676,1.41857 -8.55906,0.60823 -11.00065,-1.83337 z m 11.08058,-13.6023 c 1.16713,-1.88846 -0.53153,-5.9844 -2.93622,-7.08005 -3.68105,-1.6772 -6.59891,0.38866 -6.59891,4.67207 0,3.43296 0.0408,3.46482 4.44098,3.46482 2.44254,0 4.73491,-0.47558 5.09415,-1.05684 z m 13.91942,13.6023 c -2.24426,-2.24425 -2.45455,-3.22952 -2.45455,-11.50001 0,-8.37879 -0.1474,-9.04545 -2,-9.04545 -1.33333,0 -2,-0.66667 -2,-2 0,-1.33334 0.66667,-2 2,-2 1.61905,0 2,-0.66667 2,-3.5 0,-2.83334 0.38095,-3.5 2,-3.5 1.61905,0 2,0.66666 2,3.5 0,3.06666 0.30952,3.5 2.5,3.5 1.83333,0 2.5,0.53333 2.5,2 0,1.46666 -0.66667,2 -2.5,2 -2.46586,0 -2.5,0.11333 -2.5,8.3 0,8.56452 0.83823,10.70001 4.2,10.70001 1.13333,0 1.8,0.74074 1.8,2 0,2.88726 -4.47311,2.61779 -7.54545,-0.45455 z"
     id="path825-1"
     inkscape:connector-curvature="0"
     sodipodi:nodetypes="sccscsccscssssccscccccsssscsccscccsssccccscccssccccssscscccccscsssccscccccscscssccssssccccscsccccccsccccscsccssscscsccsccccscsccsscccscscssscsscccsccscccccscsscscsscscssssccccsccccssssccccsscccscccssccscccccssccsssssssssssssc" />
</svg>
