<?xml version="1.0" encoding="UTF-8" standalone="no"?>
<!-- Created with Inkscape (http://www.inkscape.org/) -->

<svg
   xmlns:dc="http://purl.org/dc/elements/1.1/"
   xmlns:cc="http://creativecommons.org/ns#"
   xmlns:rdf="http://www.w3.org/1999/02/22-rdf-syntax-ns#"
   xmlns:svg="http://www.w3.org/2000/svg"
   xmlns="http://www.w3.org/2000/svg"
   xmlns:sodipodi="http://sodipodi.sourceforge.net/DTD/sodipodi-0.dtd"
   xmlns:inkscape="http://www.inkscape.org/namespaces/inkscape"
   version="1.1"
   id="svg815"
   width="275"
   height="70"
   viewBox="0 0 275 70"
   sodipodi:docname="logo.svg"
   inkscape:export-filename="C:\Users\Andreza\Google Drive\Reprograma\FrontEnd\Projeto final\logo\logo5.png"
   inkscape:export-xdpi="96"
   inkscape:export-ydpi="96"
   inkscape:version="0.92.3 (2405546, 2018-03-11)">
  <metadata
     id="metadata821">
    <rdf:RDF>
      <cc:Work
         rdf:about="">
        <dc:format>image/svg+xml</dc:format>
        <dc:type
           rdf:resource="http://purl.org/dc/dcmitype/StillImage" />
        <dc:title></dc:title>
      </cc:Work>
    </rdf:RDF>
  </metadata>
  <defs
     id="defs819" />
  <sodipodi:namedview
     pagecolor="#ffffff"
     bordercolor="#666666"
     borderopacity="1"
     objecttolerance="10"
     gridtolerance="10"
     guidetolerance="10"
     inkscape:pageopacity="0"
     inkscape:pageshadow="2"
     inkscape:window-width="1366"
     inkscape:window-height="705"
     id="namedview817"
     showgrid="false"
     inkscape:zoom="2.6848485"
     inkscape:cx="107.70717"
     inkscape:cy="60.10158"
     inkscape:window-x="-8"
     inkscape:window-y="-8"
     inkscape:window-maximized="1"
     inkscape:current-layer="svg815" />
  <path
     style="fill:#ffffff;fill-opacity:1"
     d="m 108.61944,35.065056 c 3.4e-4,-19.250005 3.11437,-29.9631677 3.27824,-20.165189 0.16386,9.797982 -0.20888,28.527669 -0.37308,37.979694 -0.16421,9.452009 -2.9055,1.4355 -2.90516,-17.814505 z M 26.938837,66.62769 C 13.248087,61.56108 6.7764874,54.887611 6.7764874,45.836376 c 0,-2.16232 -0.32023,-2.3599 -2.9048,-1.79223 -1.66631,0.36598 -3.18373101,0.18668 -3.55902101,-0.42055 -0.41171,-0.66617 0.61765,-1.05854 2.77700101,-1.05854 3.26539,0 3.46345,-0.20539 4.09838,-4.25 0.36695,-2.3375 1.17987,-5.68486 1.80649,-7.43858 0.90833,-2.542143 0.76393,-5.234445 -0.71227,-13.279945 -1.83895,-10.0225287 -1.83779,-10.1099087 0.17066,-12.8114187 3.2986996,-4.43698804 7.5576496,-4.14561604 15.6666796,1.07182 6.52576,4.1987397 7.0267,4.3509697 11.82284,3.5928 2.75459,-0.43544 7.10662,-0.38789 9.67119,0.10567 4.48677,0.8634997 4.92049,0.7274497 11.48516,-3.60254 8.12808,-5.36119204 12.6332,-5.69810004 15.980833,-1.1951 l 2.00182,2.69272 -2.00314,10.0445287 c -1.952542,9.7909 -1.957222,10.177412 -0.18512,15.307285 0.9999,2.89452 1.83269,6.27526 1.85065,7.51276 0.0265,1.82608 0.59787,2.25 3.03264,2.25 1.65,0 3,0.48575 3,1.07945 0,0.66487 -1.08745,0.84061 -2.83138,0.45758 -2.7552,-0.60514 -2.86622,-0.46604 -4.12684,5.170555 -1.582082,7.07396 -5.149173,10.794279 -14.826263,15.463219 -5.95861,2.87485 -7.84261,3.27538 -16.71551,3.5536 -8.04424,0.25224 -11.04392,-0.0728 -15.33765,-1.66177 z m 25.36766,-0.61247 c 6.21515,-1.61884 13.51923,-5.74478 17.30644,-9.776069 1.440551,-1.53339 2.439121,-4.20517 2.841511,-7.60274 l 0.620412,-5.238505 -10.127443,0.27197 c -5.5701,0.14959 -10.43724,-0.0378 -10.81586,-0.41642 -0.37862,-0.37862 4.12572,-0.6884 10.00965,-0.6884 8.121531,0 10.824313,-0.32906 11.222333,-1.36628 0.28836,-0.75145 -0.39625,-4.09886 -1.521342,-7.43868 l -2.045651,-6.072403 2.014401,-9.790122 C 73.78273,8.3145223 73.78572,8.0541223 71.952028,5.5862523 68.946177,1.5408573 65.429147,1.8174533 58.554257,6.6399123 l -6.02555,4.2266797 -11.55812,0.0992 -11.55812,0.0992 -6.06799,-4.2392197 c -6.73354,-4.704179 -10.49743,-5.331343 -13.5679896,-2.26078 -2.41342,2.41342 -2.41774,3.12425 -0.0867,14.2765887 1.5632496,7.47906 1.6448896,9.327072 0.5522396,12.500005 -0.7052196,2.04787 -1.5985396,5.41091 -1.9851596,7.47341 l -0.70295,3.75 H 18.831877 c 6.20287,0 10.94347,0.33448 10.53465,0.7433 -0.40881,0.40881 -5.15628,0.59179 -10.54993,0.40661 -5.39365,-0.18518 -10.0504196,0.0578 -10.3483796,0.53988 -1.24294,2.01112 1.5832096,10.858215 4.1673896,13.045735 10.81367,9.153819 25.55347,12.391759 39.6709,8.714639 z m -22.56187,-8.988549 c -0.92128,-1.11008 -0.61194,-1.15343 1.78218,-0.24976 1.59333,0.60142 4.10133,0.79121 5.57333,0.42177 2.41516,-0.60617 2.67635,-1.11935 2.67635,-5.25832 0,-3.43667 -0.62846,-5.333475 -2.50669,-7.565625 -1.37867,-1.63847 -2.25212,-3.39093 -1.94098,-3.89436 0.31114,-0.50343 2.78915,-0.91532 5.50669,-0.91532 4.11706,0 4.94098,0.30443 4.94098,1.82568 0,1.00413 -1.125,2.88257 -2.5,4.17432 -2.74285,2.576775 -3.47132,8.628675 -1.3,10.800005 1.45216,1.45215 7.437,1.59636 8.3,0.2 0.33992,-0.55 1.15398,-0.98569 1.80902,-0.9682 0.65504,0.0175 0.39725,0.63416 -0.57286,1.37037 -2.46745,1.87252 -20.22306,1.921 -21.76802,0.0594 z m 13.63982,-13.211615 c 2.11688,-2.78865 1.67241,-3.25 -3.13101,-3.25 h -4.52305 l 1.63806,2.5 c 1.9181,2.92739 4.15174,3.20585 6.016,0.75 z m -29.60796,8.040445 c 0,-0.50794 3.0375,-1.52067 6.75,-2.25052 3.7125,-0.72985 7.38632,-1.56387 8.16405,-1.8534 0.81208,-0.30231 1.14172,-0.0858 0.77435,0.50864 -0.35183,0.56927 -3.39622,1.57736 -6.76532,2.24019 -3.36909,0.66283 -6.75505,1.44667 -7.52435,1.74188 -0.7693,0.29521 -1.39873,0.12116 -1.39873,-0.38679 z m 45.8133,-1.15204 c -3.67769,-0.90112 -7.05269,-2.0476 -7.5,-2.54773 -0.47016,-0.52568 -0.11768,-0.66079 0.83543,-0.32025 0.9068,0.324 4.40526,1.1314 7.77435,1.79423 3.3691,0.66282 6.36623,1.59444 6.66029,2.07024 0.65192,1.05482 0.5468,1.04134 -7.77007,-0.99649 z M 23.839877,30.886486 c -0.0871,-2.992423 2.51119,-5.321435 5.93661,-5.321435 3.2008,0 6.02056,2.281102 5.95996,4.821435 -0.0268,1.12375 -0.53315,0.76961 -1.53193,-1.071433 -2.33195,-4.298452 -7.36493,-3.607792 -9.31483,1.278233 -0.93219,2.33585 -0.98991,2.35197 -1.04981,0.2932 z m 32.62551,-0.5562 c -1.19287,-4.534895 -8.26383,-5.106705 -9.40047,-0.76019 -0.28693,1.09723 -0.90508,1.99496 -1.37368,1.99496 -1.23053,0 0.093,-3.281103 1.91612,-4.750005 3.74488,-3.01736 10.86092,0.14428 9.96092,4.425595 -0.29337,1.39552 -0.55263,1.18152 -1.10289,-0.91036 z M 14.401247,19.293931 c -1.2296,-4.58721 -0.67132,-7.366 1.73906,-8.655999 1.96867,-1.0535997 2.8881,-0.9939697 5.5,0.3567 1.7249,0.891979 3.13618,1.975589 3.13618,2.408039 0,0.69084 -2.05171,2.43469 -8.10783,6.89126 -1.41032,1.03782 -1.76284,0.88235 -2.26741,-1 z m 8.30304,-5.81837 c 0.0397,-0.32422 -0.96911,-1.06394 -2.24183,-1.64383 -4.20089,-1.9140487 -6.91258,1.37324 -5.07753,6.1553 0.51334,1.33774 1.12725,1.15515 3.9278,-1.16821 1.82565,-1.51458 3.35186,-3.01904 3.39156,-3.34326 z m 38.3222,4.1626 c -2.3375,-2.11467 -4.25,-4.10966 -4.25,-4.4333 0,-0.32365 1.38429,-1.3043 3.0762,-2.179219 2.8106,-1.4534097 3.28547,-1.4536397 5.5,-0.003 1.33309,0.873449 2.4238,2.196489 2.4238,2.940059 0,2.55779 -1.25086,7.60189 -1.875,7.56093 -0.34375,-0.0226 -2.5375,-1.77119 -4.875,-3.88587 z m 5.67972,-2.75168 c 0.0761,-1.27565 -2.60926,-4.321429 -3.81002,-4.321429 -0.40559,0 -1.61095,0.64921 -2.67857,1.442689 -1.87351,1.39244 -1.81921,1.54577 1.55887,4.40173 3.02364,2.5563 3.59251,2.73423 4.17972,1.30731 0.37384,-0.90846 0.71134,-2.18209 0.75,-2.8303 z M 215.77648,43.565056 c 0,-14.862753 0.24691,-18.000005 1.41667,-18.000005 0.77916,0 1.57887,0.48663 1.77713,1.08139 0.23077,0.69232 1.46652,0.44661 3.43461,-0.68292 2.62238,-1.50503 3.51782,-1.58054 6.09315,-0.51381 4.10543,1.70053 5.27844,4.817835 5.27844,14.027535 0,6.50431 -0.36409,8.280955 -2.16662,10.572505 -1.97753,2.51402 -2.58847,2.70446 -7,2.18198 l -4.83338,-0.57244 v 4.95288 c 0,4.286209 -0.2692,4.952879 -2,4.952879 -1.92593,0 -2,-0.66667 -2,-17.999994 z m 12.8,3.800005 c 0.70798,-0.707985 1.2,-4.111115 1.2,-8.300005 0,-4.18889 -0.49202,-7.59202 -1.2,-8.3 -1.90147,-1.901473 -6.59158,-1.457973 -7.76482,0.73426 -1.59257,2.97575 -1.26523,12.29228 0.52152,14.84323 1.69357,2.417905 5.334,2.931815 7.2433,1.022515 z M 145.53439,34.511936 c 4.4498,-17.781515 4.55622,-18.048575 7.07317,-17.750005 2.43147,0.28842 2.7629,1.12749 6.8347,17.303125 2.35361,9.35 4.29166,17.368795 4.30676,17.819555 0.0151,0.45075 -0.96994,0.67575 -2.18898,0.5 -1.64195,-0.23673 -2.44826,-1.3041 -3.11079,-4.11797 l -0.89435,-3.798425 -5.10613,0.29842 c -4.99895,0.29215 -5.12466,0.37714 -5.98855,4.048425 -0.70104,2.97917 -1.3512,3.75 -3.16301,3.75 h -2.2806 z m 10.8343,4.30312 c -0.29841,-0.9625 -1.1791,-4.81287 -1.95709,-8.55638 -0.778,-3.743515 -1.62536,-7.017205 -1.88304,-7.274885 -0.39859,-0.39859 -3.75511,14.655135 -3.75286,16.831265 4.3e-4,0.4125 1.8311,0.75 4.06817,0.75 3.41372,0 3.98019,-0.28124 3.52482,-1.75 z m 13.48037,11.115145 c -2.8912,-3.675575 -3.00352,-18.596265 -0.16775,-22.285228 1.93769,-2.520682 6.78401,-3.302432 10.34517,-1.668752 1.55405,0.71291 1.75,0.17497 1.75,-4.80418 0,-4.94033 0.2378,-5.60699 2,-5.60699 1.92793,0 2,0.66666 2,18.500005 0,15.294115 -0.2455,18.500005 -1.41667,18.500005 -0.77916,0 -1.58817,-0.51453 -1.7978,-1.1434 -0.28595,-0.85787 -0.91465,-0.85787 -2.51759,0 -3.7438,2.00362 -7.92755,1.39159 -10.19536,-1.49146 z m 10.37072,-3.587655 c 1.78675,-2.55095 2.11409,-11.86748 0.52152,-14.84323 -1.31277,-2.452933 -7.45245,-2.711853 -8.35783,-0.35248 -1.09573,2.85543 -0.65267,14.97253 0.59301,16.218225 1.9093,1.9093 5.54973,1.39539 7.2433,-1.022515 z m 14.01125,3.767965 c -2.2265,-2.2265 -2.45455,-3.25563 -2.45455,-11.076925 0,-8.27627 0.12229,-8.74467 3.04639,-11.668775 2.63217,-2.63217 3.54998,-2.96623 6.75,-2.45684 6.11719,0.97376 8.20361,4.346802 8.20361,13.262505 0,7.82008 -1.59031,12.639655 -4.5448,13.773405 -3.69676,1.41857 -8.55906,0.60823 -11.00065,-1.83337 z m 9.97402,-3.11688 c 1.83119,-1.831195 2.19668,-12.391765 0.53625,-15.494315 -1.17324,-2.192233 -5.86335,-2.635733 -7.76482,-0.73426 -0.70798,0.70798 -1.2,4.11111 -1.2,8.3 0,4.18889 0.49202,7.59202 1.2,8.300005 1.68275,1.68275 5.36352,1.49361 7.22857,-0.37143 z m 38.02598,3.11688 c -2.23655,-2.23655 -2.45455,-3.24116 -2.45455,-11.311445 0,-7.51494 0.30722,-9.18666 2.02768,-11.033353 6.4162,-6.886982 15.9664,-1.475662 15.97077,9.049343 l 0.002,3.75 h -7 c -7,0 -7,0 -7,2.8 0,1.54 0.54,3.34 1.2,4.000005 1.83346,1.83345 5.6217,1.43109 7.53203,-0.800005 1.53991,-1.79849 5.26797,-2.82487 5.26797,-1.45034 0,1.57235 -3.13953,6.289905 -4.5448,6.829165 -3.69676,1.41857 -8.55906,0.60823 -11.00065,-1.83337 z m 11.08058,-13.602295 c 1.16713,-1.88846 -0.53153,-5.9844 -2.93622,-7.08005 -3.68105,-1.677203 -6.59891,0.38866 -6.59891,4.67207 0,3.43296 0.0408,3.46482 4.44098,3.46482 2.44254,0 4.73491,-0.47558 5.09415,-1.05684 z m 13.91942,13.602295 c -2.24426,-2.24425 -2.45455,-3.22952 -2.45455,-11.500005 0,-8.37879 -0.1474,-9.04545 -2,-9.04545 -1.33333,0 -2,-0.666673 -2,-2.000003 0,-1.333342 0.66667,-2.000002 2,-2.000002 1.61905,0 2,-0.66667 2,-3.5 0,-2.83334 0.38095,-3.5 2,-3.5 1.61905,0 2,0.66666 2,3.5 0,3.06666 0.30952,3.5 2.5,3.5 1.83333,0 2.5,0.53333 2.5,2.000002 0,1.46666 -0.66667,2.000003 -2.5,2.000003 -2.46586,0 -2.5,0.11333 -2.5,8.3 0,8.56452 0.83823,10.700005 4.2,10.700005 1.13333,0 1.8,0.74074 1.8,2 0,2.88726 -4.47311,2.61779 -7.54545,-0.45455 z"
     id="path825-1"
     inkscape:connector-curvature="0"
     sodipodi:nodetypes="sccscsccscssssccscccccsssscsccscccsssccccscccssccccssscscccccscsssccscccccscscssccssssccccscsccccccsccccscsccssscscsccsccccscsccsscccscscssscsscccsccscccccscsscscsscscssssccccsccccssssccccsscccscccssccscccccssccsssssssssssssc" />
</svg>
